HIERARCHY
ROOT Hips
{
  OFFSET -9.37941 106.573 1.43149
  CHANNELS 6 Xposition Yposition Zposition Zrotation Xrotation Yrotation
  JOINT ToSpine
  {
    OFFSET -2.69724 7.43032 -0.144315
    CHANNELS 3 Zrotation Xrotation Yrotation
    JOINT Spine
    {
      OFFSET -0.0310711 10.7595 1.96963
      CHANNELS 3 Zrotation Xrotation Yrotation
      JOINT Spine1
      {
        OFFSET 19.9056 3.91189 0.764692
        CHANNELS 3 Zrotation Xrotation Yrotation
        JOINT Neck
        {
          OFFSET 25.9749 7.03908 -0.130764
          CHANNELS 3 Zrotation Xrotation Yrotation
          JOINT Head
          {
            OFFSET 9.52751 0.295786 -0.907742
            CHANNELS 3 Zrotation Xrotation Yrotation
            End Site
            {
              OFFSET 16.4037 0.713936 2.7358
            }
          }
        }
        JOINT LeftShoulder
        {
          OFFSET 17.7449 4.33886 11.7777
          CHANNELS 3 Zrotation Xrotation Yrotation
          JOINT LeftArm
          {
            OFFSET 0.911315 1.27913 9.80584
            CHANNELS 3 Zrotation Xrotation Yrotation
            JOINT LeftForeArm
            {
              OFFSET 28.6126 1.18197 -3.53199
              CHANNELS 3 Zrotation Xrotation Yrotation
              JOINT LeftHand
              {
                OFFSET 27.5088 0.0218783 0.327423
                CHANNELS 3 Zrotation Xrotation Yrotation
                End Site
                {
                  OFFSET 18.6038 -0.000155887 0.382096
                }
              }
            }
          }
        }
        JOINT RightShoulder
        {
          OFFSET 17.1009 2.89543 -12.2328
          CHANNELS 3 Zrotation Xrotation Yrotation
          JOINT RightArm
          {
            OFFSET 1.4228 0.178766 -10.211
            CHANNELS 3 Zrotation Xrotation Yrotation
            JOINT RightForeArm
            {
              OFFSET 28.733 1.87905 2.64907
              CHANNELS 3 Zrotation Xrotation Yrotation
              JOINT RightHand
              {
                OFFSET 27.4588 0.290562 -0.101845
                CHANNELS 3 Zrotation Xrotation Yrotation
                End Site
                {
                  OFFSET 17.8396 -0.255518 -0.000602873
                }
              }
            }
          }
        }
      }
    }
  }
  JOINT LeftUpLeg
  {
    OFFSET -5.61296 -2.22332 -10.2353
    CHANNELS 3 Zrotation Xrotation Yrotation
    JOINT LeftLeg
    {
      OFFSET 2.56703 -44.7417 -7.93097
      CHANNELS 3 Zrotation Xrotation Yrotation
      JOINT LeftFoot
      {
        OFFSET 3.16933 -46.5642 -3.96578
        CHANNELS 3 Zrotation Xrotation Yrotation
        JOINT LeftToeBase
        {
          OFFSET 0.346054 -6.02161 12.8035
          CHANNELS 3 Zrotation Xrotation Yrotation
          End Site
          {
            OFFSET 0.134235 -1.35082 5.13018
          }
        }
      }
    }
  }
  JOINT RightUpLeg
  {
    OFFSET -5.7928 -1.72406 10.6446
    CHANNELS 3 Zrotation Xrotation Yrotation
    JOINT RightLeg
    {
      OFFSET -2.57161 -44.7178 -7.85259
      CHANNELS 3 Zrotation Xrotation Yrotation
      JOINT RightFoot
      {
        OFFSET -3.10148 -46.5936 -4.03391
        CHANNELS 3 Zrotation Xrotation Yrotation
        JOINT RightToeBase
        {
          OFFSET -0.0828122 -6.13587 12.8035
          CHANNELS 3 Zrotation Xrotation Yrotation
          End Site
          {
            OFFSET -0.131328 -1.35082 5.13018
          }
        }
      }
    }
  }
}
MOTION
Frames:	6
Frame Time:	0.0333333
-9.16133 106.556 1.42453 10.2556 -71.7096 -79.0526 -70.1915 0 88.8779 59.839 68.9737 27.2232 8.21643 19.9994 3.93248 -152.882 23.6057 -179.767 -161.858 62.7412 -176.823 2.15619 -5.80393 -39.9053 -91.6412 45.5002 -112.641 -19.9234 50.6116 11.6843 9.09699 -0.534917 -4.8642 -0.00898892 -0.0403758 49.2776 -55.6601 -22.8458 114.897 -2.89429 -3.02215 16.897 12.5188 -0.063752 -0.978928 -58.4583 -0.0675051 95.7864 2.82985 16.5381 -4.50224 4.1309 -2.80231 -0.712019 -1.36708 -3.04976 1.97399 -60.6387 4.12847 82.2231 -1.19236 15.5819 -5.0132 -5.2201 -2.91781 0.87843 -0.393514 -2.68092 -0.883743 
-9.15475 106.553 1.41791 10.2256 -71.6684 -79.0775 -70.1915 0 88.8779 60.391 69.13 26.8942 8.07253 20.1139 3.74212 -153.088 23.564 -179.661 -161.951 62.7007 -177.048 2.15807 -5.7889 -39.8498 -94.888 45.4647 -109.646 -19.6682 53.0352 12.3408 9.5465 -0.594559 -5.26326 -0.00323444 -0.0501144 48.9166 -58.5154 -24.5054 112.894 -3.54153 -5.40382 15.5964 12.6185 -0.014516 -0.508439 -58.3933 -0.0516678 95.7991 2.80994 16.5717 -4.50814 4.11411 -2.8227 -0.711153 -1.34706 -2.99492 1.97868 -60.5484 4.08719 82.1888 -1.13573 15.6682 -4.98505 -5.21256 -2.9294 0.877995 -0.400992 -2.7423 -0.91986 
-9.20204 106.551 1.40229 10.5894 -71.6631 -78.6974 -70.1915 0 88.8779 61.1443 69.3312 26.0301 7.83745 20.1205 3.94396 -153.127 23.4878 -179.463 -161.625 62.5929 -177.24 2.17624 -5.72277 -39.8537 -97.8689 45.2855 -106.502 -18.8751 53.4814 12.4972 9.47231 -0.55318 -4.83025 0.00690084 -0.0770281 48.7842 -60.5587 -25.5944 110.722 -4.20186 -6.2707 14.6568 12.2136 -0.123136 -1.57569 -58.4377 -0.0443765 95.7923 2.82907 16.462 -4.62299 4.0891 -2.76788 -0.706748 -1.33545 -2.94871 1.96249 -60.5816 4.14912 82.2171 -1.1749 15.6224 -5.11577 -5.18412 -2.84407 0.873021 -0.415236 -2.83424 -0.947814 
-9.17628 106.55 1.40987 11.9525 -71.5036 -77.2682 -70.1915 0 88.8779 61.5624 69.2852 25.5426 7.88086 20.0038 3.92055 -153.361 23.5535 -179.776 -160.842 62.6077 -178.125 2.15618 -5.76832 -39.6561 -100.613 45.0455 -103.212 -18.2153 54.2749 12.7563 9.10711 -0.42701 -3.55503 0.0368157 -0.164468 48.7602 -64.762 -27.1502 107.473 -4.84231 -9.28306 13.0972 11.6525 -0.0666216 -1.04896 -58.2272 -0.154811 95.6458 2.93784 16.6225 -4.95885 4.08421 -2.81228 -0.707902 -1.32052 -2.91672 1.98207 -60.5448 4.07358 82.1252 -1.09121 15.6272 -5.48912 -5.19521 -2.86074 0.874533 -0.429801 -2.94219 -1.00047 
-9.17784 106.549 1.44485 12.086 -71.3573 -77.1444 -70.1915 0 88.8779 61.7222 69.2614 25.5661 8.14832 20.0476 3.54133 -153.825 23.568 -179.936 -161.099 62.6677 -178.103 2.19828 -5.574 -39.4082 -102.276 44.5191 -101.111 -17.9415 55.4699 13.1472 8.81791 -0.279896 -1.90401 0.0747249 -0.277876 49.0253 -67.2572 -27.8311 104.642 -5.24922 -10.4595 12.2511 11.0408 -0.0663252 -1.05466 -58.1369 -0.135921 95.6823 2.85752 16.5514 -5.04463 4.1191 -2.80165 -0.710858 -1.30254 -2.8601 1.98482 -60.476 4.06212 82.1397 -1.09572 15.5311 -5.54997 -5.19041 -2.83093 0.873295 -0.436079 -2.98718 -1.02084 
-9.22233 106.549 1.51454 12.0317 -71.5568 -77.2889 -70.1915 0 88.8779 62.185 69.5403 24.8226 8.26149 20.1209 3.88745 -154.087 23.5967 -179.241 -161.738 62.7461 -177.437 2.17318 -5.69929 -39.6181 -101.391 43.1316 -99.8355 -18.4908 55.3414 13.0892 8.84939 -0.203656 -0.931765 0.0960322 -0.336124 48.6689 -68.6464 -28.7333 102.122 -5.71769 -9.99849 11.7805 12.0077 -0.267294 -3.06693 -58.5359 -0.256004 95.6226 2.94745 16.2674 -4.9037 4.05052 -2.75136 -0.702411 -1.29405 -2.83397 1.98902 -60.638 3.99074 82.0665 -1.09774 15.6829 -5.40768 -5.14336 -2.8897 0.870264 -0.448164 -3.0376 -0.998638 
